<svg width="12" height="6" viewBox="0 0 12 6" fill="none" xmlns="http://www.w3.org/2000/svg">
<path d="M0.468731 2.4375H10.3959L8.75141 0.800999C8.56792 0.618373 8.56721 0.321584 8.74984 0.138092C8.93246 -0.0454236 9.22928 -0.0461031 9.41277 0.136499L11.8621 2.574C11.8622 2.57414 11.8624 2.5743 11.8625 2.57444C12.0455 2.75707 12.0461 3.05482 11.8626 3.23805C11.8624 3.23819 11.8623 3.23836 11.8621 3.2385L9.41282 5.676C9.22935 5.85858 8.93254 5.85795 8.74989 5.67441C8.56726 5.49091 8.56796 5.19413 8.75146 5.0115L10.3959 3.375H0.468731C0.209841 3.375 -1.90735e-05 3.16514 -1.90735e-05 2.90625C-1.90735e-05 2.64736 0.209841 2.4375 0.468731 2.4375Z" fill="#F6C042"/>
</svg>
