<svg width="27" height="14" viewBox="0 0 27 14" fill="none" xmlns="http://www.w3.org/2000/svg">
<path d="M1.05467 5.48437H23.3907L19.6907 1.80225C19.2778 1.39134 19.2762 0.723564 19.6871 0.310707C20.0981 -0.102203 20.7659 -0.103732 21.1787 0.307121L26.6897 5.79149C26.6901 5.79181 26.6903 5.79218 26.6906 5.79249C27.1024 6.2034 27.1038 6.87334 26.6907 7.28561C26.6904 7.28593 26.6901 7.2863 26.6898 7.28662L21.1788 12.771C20.766 13.1818 20.0982 13.1804 19.6873 12.7674C19.2763 12.3545 19.2779 11.6868 19.6908 11.2759L23.3907 7.59374H1.05467C0.472164 7.59374 -1.90735e-05 7.12156 -1.90735e-05 6.53905C-1.90735e-05 5.95655 0.472164 5.48437 1.05467 5.48437Z" fill="#E8E8E8"/>
</svg>
