<svg width="34" height="16" viewBox="0 0 34 16" fill="none" xmlns="http://www.w3.org/2000/svg">
<path d="M2.258 6.70968H29.5844L25.0576 2.2049C24.5525 1.70219 24.5506 0.885222 25.0533 0.380125C25.556 -0.125037 26.3731 -0.126907 26.8782 0.375738L33.6204 7.08542C33.6208 7.08581 33.6211 7.08626 33.6215 7.08664C34.1253 7.58935 34.1269 8.40897 33.6217 8.91336C33.6212 8.91374 33.6209 8.91419 33.6205 8.91458L26.8783 15.6243C26.3733 16.1268 25.5562 16.1251 25.0534 15.6199C24.5507 15.1148 24.5527 14.2978 25.0578 13.7951L29.5844 9.29032H2.258C1.54536 9.29032 0.967678 8.71265 0.967678 8C0.967678 7.28735 1.54536 6.70968 2.258 6.70968Z" fill="#111111"/>
</svg>
