<svg width="34" height="16" viewBox="0 0 34 16" fill="none" xmlns="http://www.w3.org/2000/svg">
<path d="M31.742 6.70968H4.41564L8.94236 2.2049C9.44746 1.70219 9.44939 0.885222 8.94668 0.380125C8.44397 -0.125037 7.62694 -0.126907 7.12184 0.375738L0.379638 7.08542C0.379186 7.08581 0.378864 7.08626 0.378477 7.08664C-0.125331 7.58935 -0.126943 8.40897 0.378347 8.91336C0.378799 8.91374 0.379122 8.91419 0.379509 8.91458L7.12171 15.6243C7.62674 16.1268 8.44378 16.1251 8.94655 15.6199C9.44926 15.1148 9.44733 14.2978 8.94223 13.7951L4.41564 9.29032H31.742C32.4546 9.29032 33.0323 8.71265 33.0323 8C33.0323 7.28735 32.4546 6.70968 31.742 6.70968Z" fill="#C8C8C8"/>
</svg>
