<svg width="27" height="14" viewBox="0 0 27 14" fill="none" xmlns="http://www.w3.org/2000/svg">
<path d="M25.9453 5.48437H3.60927L7.30932 1.80225C7.72218 1.39134 7.72376 0.723564 7.31285 0.310707C6.90195 -0.102203 6.23412 -0.103732 5.82126 0.307121L0.310309 5.79149C0.30994 5.79181 0.309676 5.79218 0.30936 5.79249C-0.102443 6.2034 -0.103761 6.87334 0.309254 7.28561C0.309624 7.28593 0.309887 7.2863 0.310204 7.28662L5.82116 12.771C6.23396 13.1818 6.90179 13.1804 7.31275 12.7674C7.72366 12.3545 7.72207 11.6868 7.30922 11.2759L3.60927 7.59374H25.9453C26.5278 7.59374 27 7.12156 27 6.53905C27 5.95655 26.5278 5.48437 25.9453 5.48437Z" fill="#E8E8E8"/>
</svg>
