<svg width="12" height="8" viewBox="0 0 12 8" fill="none" xmlns="http://www.w3.org/2000/svg">
<path d="M6.46824 0.191324L11.8083 5.53148C11.9319 5.65499 12 5.81986 12 5.99567C12 6.17147 11.9319 6.33635 11.8083 6.45986L11.4151 6.85312C11.1589 7.10902 10.7425 7.10902 10.4867 6.85312L6.00249 2.36887L1.51326 6.8581C1.38965 6.98161 1.22487 7.04981 1.04917 7.04981C0.873264 7.04981 0.708486 6.98161 0.584779 6.8581L0.191709 6.46483C0.0680999 6.34123 3.77652e-06 6.17645 3.76884e-06 6.00064C3.76115e-06 5.82484 0.0680999 5.65996 0.191709 5.53645L5.53664 0.191324C5.66064 0.0675199 5.8262 -0.000479428 6.0022 -8.89064e-05C6.17888 -0.000479444 6.34434 0.0675199 6.46824 0.191324Z" fill="#F6C042"/>
</svg>
