<svg width="24" height="24" viewBox="0 0 24 24" fill="none" xmlns="http://www.w3.org/2000/svg">
<g clip-path="url(#clip0)">
<path d="M16.002 0.685547L14.6016 4.56827C15.8941 8.83409 15.8941 15.1655 14.6016 19.4315L16.0019 23.3138C20.662 21.666 24.0013 17.224 24.0013 11.9994C24.0013 6.77583 20.662 2.33339 16.002 0.685547Z" fill="#D32027"/>
<path d="M15.9969 4.5684V0.685678C14.7454 0.243101 13.3994 0 11.9961 0C13.8465 0 11.2809 6.27117 15.9969 4.5684Z" fill="#F0C816"/>
<path d="M11.9979 23.9998C13.4011 23.9998 14.7472 23.7567 15.9986 23.3141V19.4318C11.33 18.966 11.9979 23.9998 11.9979 23.9998Z" fill="#F0C816"/>
<path d="M0 12C0 17.242 3.36202 21.6957 8.04619 23.3303V0.67041C3.36202 2.30498 0 6.75872 0 12Z" fill="#151515"/>
<path d="M16 4.56836V19.4316C17.2928 15.1656 17.2928 8.83407 16 4.56836Z" fill="#E73B36"/>
<path d="M16.0014 19.4318V4.5684C15.1844 1.87144 13.851 0 12.0006 0C10.6148 0 9.28528 0.237983 8.04688 0.670174V23.3301C9.28528 23.7623 10.6148 23.9998 12.0006 23.9998C13.851 23.9998 15.1843 22.1284 16.0014 19.4318Z" fill="#FFD72E"/>
</g>
<defs>
<clipPath id="clip0">
<rect width="24" height="24" fill="white"/>
</clipPath>
</defs>
</svg>
