<svg width="24" height="24" viewBox="0 0 24 24" fill="none" xmlns="http://www.w3.org/2000/svg">
<g clip-path="url(#clip0)">
<path d="M19.0781 11.2969C17.1397 11.2969 15.5625 12.8741 15.5625 14.8125C15.5625 16.7509 17.1397 18.3281 19.0781 18.3281C21.0165 18.3281 22.5938 16.7509 22.5938 14.8125C22.5938 12.8741 21.0165 11.2969 19.0781 11.2969Z" fill="black"/>
<path d="M4.92188 0C2.98345 0 1.40625 1.62408 1.40625 3.5625C1.40625 5.50092 2.98345 7.07812 4.92188 7.07812C6.8603 7.07812 8.4375 5.50092 8.4375 3.5625C8.4375 1.62408 6.8603 0 4.92188 0Z" fill="black"/>
<path d="M22.5244 6.07013C22.407 5.82708 22.1611 5.67188 21.8906 5.67188H21.1484C20.7975 2.51194 18.1113 0 14.8594 0H12C11.6114 0 11.2969 0.314484 11.2969 0.703125C11.2969 1.09177 11.6114 1.40625 12 1.40625C14.4754 1.40625 16.5767 3.28992 16.9186 5.67188H16.2656C15.9951 5.67188 15.7492 5.82708 15.6318 6.07013C15.5151 6.31388 15.5474 6.60295 15.7163 6.81445L18.5288 10.3301C18.6627 10.497 18.8646 10.5938 19.0781 10.5938C19.2917 10.5938 19.4935 10.497 19.6274 10.3301L22.4399 6.81445C22.6089 6.60295 22.6411 6.31388 22.5244 6.07013Z" fill="#111111"/>
<path d="M12 22.5938C9.52464 22.5938 7.42332 20.7101 7.08137 18.3282H7.73439C8.0049 18.3282 8.25076 18.173 8.36818 17.9299C8.4849 17.6862 8.45265 17.3971 8.28371 17.1856L5.47122 13.67C5.20342 13.3363 4.64036 13.3363 4.37256 13.67L1.56006 17.1856C1.39113 17.3971 1.35888 17.6862 1.47559 17.9299C1.59302 18.173 1.83888 18.3282 2.10939 18.3282H2.85166C3.20252 21.4881 5.88868 24 9.14064 24H12C12.3886 24 12.7031 23.6856 12.7031 23.2969C12.7031 22.9083 12.3886 22.5938 12 22.5938Z" fill="black"/>
<path d="M22.5118 18.3281C21.624 19.1953 20.414 19.7344 19.0781 19.7344C17.7422 19.7344 16.5322 19.1953 15.6445 18.3281C14.7289 19.2225 14.1562 20.5129 14.1562 21.8906V23.2969C14.1562 23.6855 14.4707 24 14.8594 24H23.2969C23.6855 24 24 23.6855 24 23.2969V21.8906C24 20.5129 23.4273 19.2225 22.5118 18.3281Z" fill="black"/>
<path d="M8.35552 7.07812C7.46775 7.94527 6.25772 8.48438 4.92188 8.48438C3.58603 8.48438 2.37595 7.94527 1.48823 7.07812C0.572672 7.9725 0 9.216 0 10.5938V12C0 12.3886 0.314484 12.7031 0.703125 12.7031H9.14062C9.52927 12.7031 9.84375 12.3886 9.84375 12V10.5938C9.84375 9.216 9.27108 7.9725 8.35552 7.07812Z" fill="black"/>
</g>
<defs>
<clipPath id="clip0">
<rect width="24" height="24" fill="white"/>
</clipPath>
</defs>
</svg>
