<svg width="30" height="30" viewBox="0 0 30 30" fill="none" xmlns="http://www.w3.org/2000/svg">
<g clip-path="url(#clip0)">
<path d="M7.61966 29.5205L6.63014 28.5378C6.32111 28.2285 6.15087 27.8171 6.15087 27.3773C6.15087 26.9378 6.32111 26.5258 6.63014 26.2166L17.8405 15.0067L6.6177 3.78393C6.30867 3.47515 6.13867 3.0632 6.13867 2.62368C6.13867 2.18416 6.30867 1.77197 6.6177 1.46294L7.60112 0.480004C8.24064 -0.160001 9.28236 -0.160001 9.92187 0.480004L23.332 13.8421C23.6408 14.1508 23.8583 14.5623 23.8583 15.0057L23.8583 15.0109C23.8583 15.4506 23.6405 15.8621 23.332 16.1709L9.95822 29.5205C9.64943 29.8298 9.22553 29.9995 8.78601 30C8.34625 30 7.9282 29.8298 7.61966 29.5205Z" fill="#111111"/>
</g>
<defs>
<clipPath id="clip0">
<rect width="30" height="30" fill="white" transform="matrix(4.37114e-08 1 1 -4.37114e-08 0 0)"/>
</clipPath>
</defs>
</svg>
