<svg width="30" height="30" viewBox="0 0 30 30" fill="none" xmlns="http://www.w3.org/2000/svg">
<g clip-path="url(#clip0)">
<path d="M22.3803 29.5205L23.3699 28.5378C23.6789 28.2285 23.8491 27.8171 23.8491 27.3773C23.8491 26.9378 23.6789 26.5258 23.3699 26.2166L12.1595 15.0067L23.3823 3.78393C23.6913 3.47515 23.8613 3.0632 23.8613 2.62368C23.8613 2.18416 23.6913 1.77197 23.3823 1.46294L22.3989 0.480004C21.7594 -0.160001 20.7176 -0.160001 20.0781 0.480004L6.66802 13.8421C6.35923 14.1508 6.14167 14.5623 6.14167 15.0057L6.14167 15.0109C6.14167 15.4506 6.35948 15.8621 6.66802 16.1709L20.0418 29.5205C20.3506 29.8298 20.7745 29.9995 21.214 30C21.6537 30 22.0718 29.8298 22.3803 29.5205Z" fill="#111111"/>
</g>
<defs>
<clipPath id="clip0">
<rect width="30" height="30" fill="white" transform="translate(30) rotate(90)"/>
</clipPath>
</defs>
</svg>
