<svg width="60" height="60" viewBox="0 0 60 60" fill="none" xmlns="http://www.w3.org/2000/svg">
<g clip-path="url(#clip0)">
<path d="M29.9986 18.5692C23.6947 18.5692 18.5664 23.6975 18.5664 30.0009C18.5664 36.3048 23.6947 41.4331 29.9986 41.4331C36.302 41.4331 41.4303 36.3048 41.4303 30.0009C41.4303 23.6975 36.302 18.5692 29.9986 18.5692ZM36.7859 27.8481L28.596 36.0379C28.2522 36.3817 27.8013 36.5538 27.3509 36.5538C26.9005 36.5538 26.45 36.3821 26.1062 36.0379L22.9765 32.9082C22.2889 32.2211 22.2889 31.1064 22.9765 30.4189C23.6636 29.7313 24.7783 29.7313 25.4658 30.4189L27.3509 32.3039L34.2965 25.3587C34.9836 24.6712 36.0983 24.6712 36.7859 25.3587C37.4734 26.0458 37.4734 27.1605 36.7859 27.8481Z" fill="white"/>
<path d="M55.4867 16.2794L55.4849 16.2327C55.4588 15.6564 55.4414 15.0467 55.4309 14.3683C55.3819 11.06 52.7521 8.3235 49.4434 8.13857C42.5449 7.75359 37.2083 5.50414 32.6485 1.05973L32.6096 1.02265C31.1223 -0.341023 28.8788 -0.341023 27.3911 1.02265L27.3522 1.05973C22.7924 5.50414 17.4558 7.75359 10.5574 8.13903C7.24912 8.3235 4.61881 11.06 4.56983 14.3687C4.55976 15.0425 4.54191 15.6523 4.51582 16.2327L4.51307 16.3412C4.37895 23.3756 4.21232 32.1304 7.14108 40.0767C8.75149 44.4465 11.1905 48.245 14.3898 51.3674C18.0335 54.9233 22.8062 57.7463 28.5749 59.7577C28.7626 59.8231 28.9576 59.8762 29.1563 59.9161C29.4364 59.9719 29.7184 59.9998 30.0004 59.9998C30.2823 59.9998 30.5648 59.9719 30.8445 59.9161C31.0431 59.8762 31.2395 59.8227 31.4281 59.7568C37.19 57.7417 41.9576 54.9173 45.5982 51.3619C48.7961 48.2386 51.235 44.4391 52.8468 40.0684C55.7866 32.0983 55.6204 23.3271 55.4867 16.2794ZM29.9994 44.9537C21.7542 44.9537 15.0466 38.2461 15.0466 30.0008C15.0466 21.7556 21.7542 15.048 29.9994 15.048C38.2442 15.048 44.9523 21.7556 44.9523 30.0008C44.9523 38.2461 38.2442 44.9537 29.9994 44.9537Z" fill="white"/>
</g>
<defs>
<clipPath id="clip0">
<rect width="60" height="60" fill="white"/>
</clipPath>
</defs>
</svg>
