<svg width="61" height="61" viewBox="0 0 61 61" fill="none" xmlns="http://www.w3.org/2000/svg">
<g clip-path="url(#clip0)">
<path d="M30.4963 12.8639C24.5364 12.8639 19.6875 17.7124 19.6875 23.6722C19.6875 29.6325 24.5364 34.4809 30.4963 34.4809C36.4561 34.4809 41.3045 29.6325 41.3045 23.6722C41.3045 17.7124 36.4561 12.8639 30.4963 12.8639Z" fill="white"/>
<path d="M53.0115 30.9872L49.7338 23.6722L53.0115 16.3571L46.0604 12.3655L44.4125 4.52082L36.4422 5.37761L30.4982 0L24.5537 5.37761L16.5839 4.52129L14.9359 12.3659L7.98438 16.3571L11.2621 23.6722L7.98438 30.9872L14.9359 34.9789L15.8286 39.2288L8.40835 54.9959L16.1525 55.0973L21.1666 60.9999L28.4602 45.5009L30.4982 47.3443L32.5357 45.5009L39.8298 60.9999L44.8434 55.0973L52.5876 54.9959L45.1673 39.2288L46.0604 34.9789L53.0115 30.9872ZM30.4982 38.0547C22.5674 38.0547 16.1157 31.6029 16.1157 23.6722C16.1157 15.7414 22.5674 9.28969 30.4982 9.28969C38.4285 9.28969 44.8807 15.7419 44.8807 23.6722C44.8807 31.6029 38.4285 38.0547 30.4982 38.0547Z" fill="white"/>
</g>
<defs>
<clipPath id="clip0">
<rect width="61" height="61" fill="white"/>
</clipPath>
</defs>
</svg>
